<?xml version="1.0" encoding="UTF-8"?>
<svg width="28px" height="30px" viewBox="0 0 28 30" version="1.1" xmlns="http://www.w3.org/2000/svg" xmlns:xlink="http://www.w3.org/1999/xlink">
    <!-- Generator: Sketch 50.2 (55047) - http://www.bohemiancoding.com/sketch -->
    <title>Weiblich</title>
    <desc>Created with Sketch.</desc>
    <defs></defs>
    <g id="Startseite" stroke="none" stroke-width="1" fill="none" fill-rule="evenodd">
        <g id="viac-landingpage-v03-Gebührnerechner" transform="translate(-169.000000, -2007.000000)" stroke="#64716C" stroke-width="2.42325043">
            <g id="Weiblich" transform="translate(171.000000, 2009.000000)">
                <path d="M17.9938916,3.66952775 L17.9512434,8.35714535 C17.9331963,10.3407634 16.328104,11.9435943 14.3444625,11.9588446 L9.66338357,11.994833 C7.65595651,12.0102662 6.01610426,10.3954361 6.00067105,8.38800906 C6.00059944,8.37869447 6.00056363,8.36937964 6.00056363,8.36006477 L5.99987527,3.63487564 C5.99987527,1.62738926 7.62726453,-5.40431415e-15 9.63475091,-5.77315973e-15 C9.63498038,-5.77315973e-15 9.63520986,2.17309773e-08 9.63543934,6.51929435e-08 L14.3598548,0.00158321536 C16.3673412,0.00196342501 17.9944222,1.62966087 17.994042,3.63714722 C17.9940399,3.6479409 17.9939898,3.65873452 17.9938916,3.66952775 Z" id="Shape"></path>
                <path d="M24,27 L19.7108332,17.7040097 C19.5128163,17.2748439 19.0833144,17 18.6106686,17 L5.60571009,17 C5.14138292,17 4.71789424,17.2653597 4.51538773,17.6832004 L0,27" id="Shape"></path>
            </g>
        </g>
    </g>
</svg>