<?xml version="1.0" encoding="UTF-8"?>
<svg width="18px" height="30px" viewBox="0 0 18 30" version="1.1" xmlns="http://www.w3.org/2000/svg" xmlns:xlink="http://www.w3.org/1999/xlink">
    <!-- Generator: Sketch 50.2 (55047) - http://www.bohemiancoding.com/sketch -->
    <title>Männlich</title>
    <desc>Created with Sketch.</desc>
    <defs></defs>
    <g id="Startseite" stroke="none" stroke-width="1" fill="none" fill-rule="evenodd">
        <g id="viac-landingpage-v03-Gebührnerechner" transform="translate(-337.000000, -2007.000000)" stroke="#64716C" stroke-width="2.42325043">
            <g id="Männlich" transform="translate(338.000000, 2009.000000)">
                <path d="M13.9938916,3.66952775 L13.9512434,8.35714535 C13.9331963,10.3407634 12.328104,11.9435943 10.3444625,11.9588446 L5.66338357,11.994833 C3.65595651,12.0102662 2.01610426,10.3954361 2.00067105,8.38800906 C2.00059944,8.37869447 2.00056363,8.36937964 2.00056363,8.36006477 L1.99987527,3.63487564 C1.99987527,1.62738926 3.62726453,-5.40431415e-15 5.63475091,-5.77315973e-15 C5.63498038,-5.77315973e-15 5.63520986,2.17309773e-08 5.63543934,6.51929435e-08 L10.3598548,0.00158321536 C12.3673412,0.00196342501 13.9944222,1.62966087 13.994042,3.63714722 C13.9940399,3.6479409 13.9939898,3.65873452 13.9938916,3.66952775 Z" id="Shape"></path>
                <path d="M15.3860034,27.3544922 L15.3860034,18.2116252 C15.3860034,17.5424631 14.8435403,17 14.1743782,17 L2.05812606,17 C1.38896394,17 0.84650085,17.5424631 0.84650085,18.2116252 L0.84650085,27.3544922" id="Shape"></path>
            </g>
        </g>
    </g>
</svg>